# xmcd
#
# Track frame offsets:
#	150
#	19722
#	44977
#	76153
#	95384
#	105458
#	121707
#	150440
#	167802
#
# Disc length: 2396 seconds
#
# Revision: 1
# Processed by: cddbd v1.5.2PL0 Copyright (c) Steve Scherf et al.
# Submitted via: audiograbber 1.83.01
#
DISCID=60095a09
DTITLE=Grateful Dead - 69-01-25 Avalon Ballroom, San Francisco CA
DYEAR=1900
DGENRE=
TTITLE0=Dupree's Diamond Blues
TTITLE1=Doin' That Rag
TTITLE2=Cosmic Charlie
TTITLE3=Alligator
TTITLE4=Drums
TTITLE5=Alligator
TTITLE6=Caution
TTITLE7=Feedback
TTITLE8=We Bid You Goodnight
EXTD=
EXTT0=
EXTT1=
EXTT2=
EXTT3=
EXTT4=
EXTT5=
EXTT6=
EXTT7=
EXTT8=
PLAYORDER=
